<svg xmlns="http://www.w3.org/2000/svg" version="1.1" xmlns:xlink="http://www.w3.org/1999/xlink" xmlns:svgjs="http://svgjs.com/svgjs" width="100%" height="100%" viewBox="0 0 1000 600"><rect width="1000" height="600" x="0" y="0" fill="#ffffff"/><g><rect width="333.3333333333333" height="333.3333333333333" rx="13.333333333333334" ry="13.333333333333334" y="219.60384498820207" fill="#E2V144" transform="matrix(0.6332910074223067,0,0,0.6332910074223067,0,55.37836938703748)" x="197.38162231445312"/><path d="M269.93720721679733 461.2704993356705Q243.2400665034408 461.2704993356705 230.43127440162272 445.3105693135874Q217.62248229980466 429.32146208853885 217.62248229980466 400.14425912312186L217.62248229980466 400.14425912312186L217.62248229980466 311.2704988904617L236.7335502421528 311.2704988904617L236.7335502421528 394.65894496562345Q236.7335502421528 410.0061537254328 239.1552580882824 420.50994679298293Q241.57696593441202 431.01373986053306 248.9296210816971 437.4327245129248Q256.2822762289822 443.8225319623511 269.93720721679733 443.8225319623511L269.93720721679733 443.8225319623511Q283.7963786253704 443.8225319623511 291.1490337726555 437.4327245129248Q298.5016889199406 431.01373986053306 300.9233967660702 420.50994679298293Q303.3159274092344 410.0061537254328 303.3159274092344 394.65894496562345L303.3159274092344 394.65894496562345L303.3159274092344 311.2704988904617L322.45617255454795 311.2704988904617L322.45617255454795 400.14425912312186Q322.45617255454795 429.55487971226216 309.61820324976446 445.39810092248365Q296.8094111479464 461.2704993356705 269.93720721679733 461.2704993356705L269.93720721679733 461.2704993356705ZM348.71565522342325 458.32360183616333L348.71565522342325 311.2704988904617L367.82672316577134 311.2704988904617L367.82672316577134 440.87563446284395L423.9053072653029 440.87563446284395L423.9053072653029 458.32360183616333L348.71565522342325 458.32360183616333ZM454.5705475819561 458.32360183616333L454.5705475819561 328.71846626378107L418.04068946925406 328.71846626378107L418.04068946925406 311.2704988904617L510.4740684636951 311.2704988904617L510.4740684636951 328.71846626378107L473.9150331480276 328.71846626378107L473.9150331480276 458.32360183616333L454.5705475819561 458.32360183616333Z " fill="white" transform="matrix(0.6332910074223067,0,0,0.6332910074223067,0,55.37836938703748)"/><path d="M666.3630037255864 461.2704993356705Q639.6658630122297 461.2704993356705 626.8570709104117 445.3105693135874Q614.0482788085936 429.32146208853885 614.0482788085936 400.14425912312186L614.0482788085936 400.14425912312186L614.0482788085936 311.2704988904617L633.1593467509417 311.2704988904617L633.1593467509417 394.65894496562345Q633.1593467509417 410.0061537254328 635.5810545970714 420.50994679298293Q638.0027624432009 431.01373986053306 645.355417590486 437.4327245129248Q652.7080727377711 443.8225319623511 666.3630037255864 443.8225319623511L666.3630037255864 443.8225319623511Q680.2221751341594 443.8225319623511 687.5748302814445 437.4327245129248Q694.9274854287296 431.01373986053306 697.3491932748592 420.50994679298293Q699.7417239180234 410.0061537254328 699.7417239180234 394.65894496562345L699.7417239180234 394.65894496562345L699.7417239180234 311.2704988904617L718.8819690633369 311.2704988904617L718.8819690633369 400.14425912312186Q718.8819690633369 429.55487971226216 706.0439997585535 445.39810092248365Q693.2352076567354 461.2704993356705 666.3630037255864 461.2704993356705L666.3630037255864 461.2704993356705ZM745.1414517322122 458.32360183616333L745.1414517322122 311.2704988904617L764.2525196745603 311.2704988904617L764.2525196745603 440.87563446284395L820.3311037740918 440.87563446284395L820.3311037740918 458.32360183616333L745.1414517322122 458.32360183616333ZM850.9963440907451 458.32360183616333L850.9963440907451 328.71846626378107L814.466485978043 328.71846626378107L814.466485978043 311.2704988904617L906.899864972484 311.2704988904617L906.899864972484 328.71846626378107L870.3408296568166 328.71846626378107L870.3408296568166 458.32360183616333L850.9963440907451 458.32360183616333ZM926.2151733355901 458.32360183616333L926.2151733355901 311.2704988904617L945.5304816986961 311.2704988904617L945.5304816986961 458.32360183616333L926.2151733355901 458.32360183616333ZM969.9226233777847 402.0116001129085L969.9226233777847 383.9509114773154L1026.0012074773163 383.9509114773154L1026.0012074773163 402.0116001129085L969.9226233777847 402.0116001129085ZM1048.7010713844106 458.32360183616333L1048.7010713844106 311.2704988904617L1095.734722564663 311.2704988904617Q1114.0288288239794 311.2704988904617 1128.208949465172 320.0820141860176Q1142.3890701063647 328.9227066845389 1150.3544465159234 345.52453517186126Q1158.3490001284479 362.0971864562181 1158.3490001284479 384.7970503633125L1158.3490001284479 384.7970503633125Q1158.3490001284479 407.49691427040693 1150.3544465159234 424.0695655547638Q1142.3890701063647 440.67139404208604 1128.208949465172 449.51208654060736Q1114.0288288239794 458.32360183616333 1095.734722564663 458.32360183616333L1095.734722564663 458.32360183616333L1048.7010713844106 458.32360183616333ZM1067.8121393267588 440.87563446284395L1092.175103802882 440.87563446284395Q1114.2330692447372 440.87563446284395 1125.6705328071807 426.17032416827385Q1137.1371735725897 411.46501387370364 1137.1371735725897 384.7970503633125L1137.1371735725897 384.7970503633125Q1137.1371735725897 358.1290868529214 1125.6705328071807 343.42377655835116Q1114.2330692447372 328.71846626378107 1092.175103802882 328.71846626378107L1092.175103802882 328.71846626378107L1067.8121393267588 328.71846626378107L1067.8121393267588 440.87563446284395ZM1180.2027251495451 458.32360183616333L1180.2027251495451 311.2704988904617L1218.0163801927256 311.2704988904617Q1241.1247249413357 311.2704988904617 1254.0502258550157 322.7079624529052Q1266.9465495657298 334.174603218314 1266.9465495657298 356.23256866016925L1266.9465495657298 356.23256866016925Q1266.9465495657298 368.8371203412294 1260.9652229578194 379.01996417615993Q1254.983896349909 389.2028080110905 1244.275862861601 395.0966030101047L1244.275862861601 395.0966030101047L1273.6864834507412 458.32360183616333L1250.9866195436468 458.32360183616333L1224.7271368747715 400.7569803853956Q1221.3717585337486 401.1946384298769 1217.8121397719676 401.1946384298769L1217.8121397719676 401.1946384298769L1199.3137930918933 401.1946384298769L1199.3137930918933 458.32360183616333L1180.2027251495451 458.32360183616333ZM1199.3137930918933 383.5424306357996L1216.3241024207314 383.5424306357996Q1232.2840324428146 383.5424306357996 1239.6366875900997 376.5982563300303Q1246.9893427373847 369.6832592272265 1246.9893427373847 356.23256866016925L1246.9893427373847 356.23256866016925Q1246.9893427373847 342.5776376723541 1239.6366875900997 335.63346336658486Q1232.2840324428146 328.71846626378107 1216.3241024207314 328.71846626378107L1216.3241024207314 328.71846626378107L1199.3137930918933 328.71846626378107L1199.3137930918933 383.5424306357996ZM1360.430307866926 311.2704988904617L1381.6713116257495 311.2704988904617L1338.3723424250709 394.65894496562345L1338.3723424250709 458.32360183616333L1319.2612744827227 458.32360183616333L1319.2612744827227 394.65894496562345L1275.5830016434932 311.2704988904617L1296.7948281993515 311.2704988904617L1328.7146882435175 374.4974977165203L1360.430307866926 311.2704988904617Z " fill="#E2V144" transform="matrix(0.6332910074223067,0,0,0.6332910074223067,0,55.37836938703748)"/></g></svg>